<svg width="1600" height="640" viewBox="0 0 1600 640" fill="none" xmlns="http://www.w3.org/2000/svg">
  <rect width="1600" height="640" rx="72" fill="#FCFBF8"/>
  <g transform="translate(72 78)">
    <rect x="0" y="0" width="484" height="484" rx="120" fill="url(#badge)"/>
    <rect x="46" y="46" width="392" height="392" rx="98" fill="#FFF9F0" fill-opacity="0.96"/>
    <path d="M120 338V140H160L242 272L324 140H364V338H321V218L255 320H229L163 218V338H120Z" fill="#FF8A00"/>
    <path d="M198 262H286V306H198V262Z" fill="#35D67C"/>
    <circle cx="242" cy="284" r="74" stroke="#35D67C" stroke-width="18" stroke-dasharray="14 18"/>
  </g>

  <g transform="translate(632 162)">
    <path d="M0 244V20H40L134 179L228 20H268V244H222V110L146 210H122L46 110V244H0Z" fill="#FF8A00"/>
    <path d="M309 244V83C309 45 338 22 380 22H487V64H388C367 64 356 72 356 87V106H473C514 106 543 131 543 169V181C543 219 514 244 473 244H309ZM356 202H465C485 202 497 193 497 178V172C497 157 485 148 465 148H356V202Z" fill="#FF8A00"/>
    <path d="M582 244V83C582 45 611 22 653 22H770V64H661C640 64 629 72 629 87V244H582Z" fill="#FF8A00"/>
    <path d="M807 244V0H854V244H807Z" fill="#FF8A00"/>
    <path d="M899 132L1010 22H1071L957 132L1082 244H1017L899 145V244H852V22H899V132Z" fill="#FF8A00"/>

    <path d="M585 496V276H632V365H754V276H801V496H754V407H632V496H585Z" fill="#35D67C"/>
    <path d="M835 408V365C835 314 872 276 925 276H1034C1087 276 1124 314 1124 365V408C1124 458 1087 496 1034 496H925C872 496 835 458 835 408ZM882 401C882 429 899 454 928 454H1031C1060 454 1077 429 1077 401V372C1077 343 1060 318 1031 318H928C899 318 882 343 882 372V401Z" fill="#35D67C"/>
    <path d="M968 270C982 278 992 290 998 305" stroke="#35D67C" stroke-width="12" stroke-linecap="round"/>
    <path d="M998 466C986 478 971 486 955 490" stroke="#35D67C" stroke-width="12" stroke-linecap="round"/>
    <path d="M889 318C896 302 907 289 921 280" stroke="#35D67C" stroke-width="12" stroke-linecap="round"/>
    <path d="M1101 362C1103 377 1100 394 1092 408" stroke="#35D67C" stroke-width="12" stroke-linecap="round"/>
    <path d="M948 272C962 273 976 278 987 286" stroke="#35D67C" stroke-width="8" stroke-linecap="round"/>
    <path d="M913 287C924 279 937 274 951 272" stroke="#35D67C" stroke-width="8" stroke-linecap="round"/>
    <path d="M890 311C897 297 907 285 920 276" stroke="#35D67C" stroke-width="8" stroke-linecap="round"/>
    <path d="M876 343C878 328 884 314 893 301" stroke="#35D67C" stroke-width="8" stroke-linecap="round"/>
    <path d="M874 379C872 364 874 349 879 335" stroke="#35D67C" stroke-width="8" stroke-linecap="round"/>
    <path d="M883 414C876 401 873 387 874 373" stroke="#35D67C" stroke-width="8" stroke-linecap="round"/>
    <path d="M903 442C891 433 882 421 877 407" stroke="#35D67C" stroke-width="8" stroke-linecap="round"/>
    <path d="M933 458C919 456 906 451 895 443" stroke="#35D67C" stroke-width="8" stroke-linecap="round"/>
    <path d="M968 458C954 460 939 460 925 456" stroke="#35D67C" stroke-width="8" stroke-linecap="round"/>
    <path d="M999 445C987 453 973 458 958 459" stroke="#35D67C" stroke-width="8" stroke-linecap="round"/>
    <path d="M1021 423C1014 437 1004 448 991 456" stroke="#35D67C" stroke-width="8" stroke-linecap="round"/>
    <path d="M1034 394C1034 409 1030 423 1022 436" stroke="#35D67C" stroke-width="8" stroke-linecap="round"/>
    <path d="M1033 360C1037 375 1036 390 1032 405" stroke="#35D67C" stroke-width="8" stroke-linecap="round"/>
    <path d="M1022 328C1031 340 1036 354 1036 369" stroke="#35D67C" stroke-width="8" stroke-linecap="round"/>
    <path d="M1000 301C1012 309 1022 320 1029 333" stroke="#35D67C" stroke-width="8" stroke-linecap="round"/>
    <path d="M1156 496V315C1156 292 1173 276 1197 276H1239V318H1206C1200 318 1196 322 1196 329V496H1156Z" fill="#35D67C"/>
    <path d="M1270 408V365C1270 314 1308 276 1361 276H1470C1523 276 1560 314 1560 365V408C1560 458 1523 496 1470 496H1361C1308 496 1270 458 1270 408ZM1317 401C1317 429 1334 454 1364 454H1467C1496 454 1513 429 1513 401V372C1513 343 1496 318 1467 318H1364C1334 318 1317 343 1317 372V401Z" fill="#35D67C"/>
  </g>

  <defs>
    <linearGradient id="badge" x1="0" y1="0" x2="484" y2="484" gradientUnits="userSpaceOnUse">
      <stop stop-color="#FFF2D9"/>
      <stop offset="1" stop-color="#EFFFF5"/>
    </linearGradient>
  </defs>
</svg>
