<svg width="1800" height="720" viewBox="0 0 1800 720" fill="none" xmlns="http://www.w3.org/2000/svg" role="img" aria-labelledby="title desc">
  <title id="title">MarkHola</title>
  <desc id="desc">The MarkHola logo: a friendly M and H markdown document icon with a modern wordmark.</desc>
  <defs>
    <linearGradient id="surface" x1="70" y1="50" x2="620" y2="664" gradientUnits="userSpaceOnUse">
      <stop stop-color="#F4F8FF"/>
      <stop offset="1" stop-color="#E8FFF7"/>
    </linearGradient>
    <linearGradient id="m-gradient" x1="0" y1="0" x2="0" y2="1">
      <stop stop-color="#8A7BFF"/>
      <stop offset="1" stop-color="#5847D5"/>
    </linearGradient>
    <linearGradient id="h-gradient" x1="0" y1="0" x2="0" y2="1">
      <stop stop-color="#38D9AF"/>
      <stop offset="1" stop-color="#0AA783"/>
    </linearGradient>
    <filter id="shadow" x="76" y="76" width="526" height="550" filterUnits="userSpaceOnUse" color-interpolation-filters="sRGB">
      <feDropShadow dx="0" dy="16" stdDeviation="16" flood-color="#334B7B" flood-opacity=".15"/>
    </filter>
  </defs>
  <path d="M126 217C126 167 167 126 217 126H503C553 126 594 167 594 217V503C594 553 553 594 503 594H217C167 594 126 553 126 503V217Z" fill="#D8E5FF" opacity=".48"/>
  <g filter="url(#shadow)">
    <path d="M196 161C168 161 145 184 145 212V509C145 537 168 560 196 560H506C534 560 557 537 557 509V291L421 161H196Z" fill="white"/>
    <path d="M421 161V246C421 271 441 291 466 291H557L421 161Z" fill="#DDE7FF"/>
  </g>
  <g transform="translate(-33 0)">
    <path d="M211 471V279C211 269 219 261 229 261H251C258 261 263 265 267 271L313 345L359 271C363 265 369 261 375 261H398C408 261 416 269 416 279V471H373V347L333 410C330 416 324 420 317 420H314C307 420 301 416 298 410L257 347V471H211Z" fill="url(#m-gradient)"/>
    <rect x="394" y="261" width="8" height="210" fill="white"/>
    <path d="M402 261H416V339H505V261H557V471H505V377H416V471H402V261Z" fill="url(#h-gradient)"/>
  </g>
  <path d="M188 499H322" stroke="#B7C6E6" stroke-width="12" stroke-linecap="round"/>
  <path d="M188 527H283" stroke="#D7E0F2" stroke-width="12" stroke-linecap="round"/>
  <path d="M498 184L505 203L524 210L505 217L498 236L491 217L472 210L491 203L498 184Z" fill="#FFB62E"/>
  <g aria-label="MarkHola">
    <text x="780" y="430" fill="url(#m-gradient)" font-family="Avenir Next, Avenir, Helvetica Neue, Arial, sans-serif" font-size="210" font-weight="700" letter-spacing="-10">Mark</text>
    <text x="1240" y="430" fill="url(#h-gradient)" font-family="Avenir Next, Avenir, Helvetica Neue, Arial, sans-serif" font-size="210" font-weight="700" letter-spacing="-10">Hola</text>
    <path d="M780 488H1505" stroke="#DCE6F7" stroke-width="16" stroke-linecap="round"/>
    <text x="790" y="556" fill="#7183A9" font-family="Avenir Next, Avenir, Helvetica Neue, Arial, sans-serif" font-size="30" font-weight="600" letter-spacing=".4">MarkHola, Free Markdown Reader Designed by AI</text>
  </g>
</svg>
